<?xml version="1.0" encoding="UTF-8" standalone="no"?>
<svg
   xmlns:dc="http://purl.org/dc/elements/1.1/"
   xmlns:cc="http://creativecommons.org/ns#"
   xmlns:rdf="http://www.w3.org/1999/02/22-rdf-syntax-ns#"
   xmlns:svg="http://www.w3.org/2000/svg"
   xmlns="http://www.w3.org/2000/svg"
   xmlns:sodipodi="http://sodipodi.sourceforge.net/DTD/sodipodi-0.dtd"
   xmlns:inkscape="http://www.inkscape.org/namespaces/inkscape"
   version="1.0"
   width="252.000000pt"
   height="255.000000pt"
   viewBox="0 0 252.000000 255.000000"
   preserveAspectRatio="xMidYMid meet"
   id="svg1421"
   sodipodi:docname="image1374.svg"
   inkscape:version="0.92.4 (5da689c313, 2019-01-14)">
  <defs
     id="defs1425" />
  <sodipodi:namedview
     pagecolor="#ffffff"
     bordercolor="#666666"
     borderopacity="1"
     objecttolerance="10"
     gridtolerance="10"
     guidetolerance="10"
     inkscape:pageopacity="0"
     inkscape:pageshadow="2"
     inkscape:window-width="1366"
     inkscape:window-height="705"
     id="namedview1423"
     showgrid="false"
     inkscape:zoom="0.69411765"
     inkscape:cx="456.13559"
     inkscape:cy="138.30508"
     inkscape:window-x="1358"
     inkscape:window-y="-8"
     inkscape:window-maximized="1"
     inkscape:current-layer="svg1421" />
  <metadata
     id="metadata1411">
Created by potrace 1.16, written by Peter Selinger 2001-2019
<rdf:RDF>
  <cc:Work
     rdf:about="">
    <dc:format>image/svg+xml</dc:format>
    <dc:type
       rdf:resource="http://purl.org/dc/dcmitype/StillImage" />
    <dc:title></dc:title>
  </cc:Work>
</rdf:RDF>
</metadata>
  <g
     id="g1987"
     transform="translate(-3.2415254,10.805085)">
    <path
       d="m 50.7,16.1 c -17.5,5.7 -20.8,7.6 -24.4,13.7 -5.2,8.8 -4.8,10.4 14.1,56.2 24.6,59.7 25.4,61.4 28.4,64.3 6.4,6.1 13.8,7.1 25.9,3.2 9.9,-3.2 13.6,-5.4 16.8,-10.5 4.5,-7.2 4.3,-9.7 -3.4,-41.5 -3.9,-16 -9.6,-39.4 -12.6,-52 C 92.4,36.8 89.2,24.8 88.4,22.8 85.2,15.6 77.8,10.9 69.8,11.1 c -2.4,0.1 -11,2.3 -19.1,5 z"
       id="path1413"
       style="fill:none;stroke:#000000;stroke-width:15;stroke-miterlimit:4;stroke-dasharray:none"
       inkscape:connector-curvature="0" />
    <path
       d="m 142,47.7 c -1.4,0.2 -5.6,1.3 -9.5,2.5 -12.8,3.8 -16.2,10.4 -12.9,24.8 2.9,13.1 4.9,17.2 9.6,20.3 3.8,2.5 5,2.8 9.8,2.3 3,-0.3 8.7,-0.8 12.7,-1.2 9.1,-0.8 15.4,1.2 21.8,6.8 6.3,5.5 8.7,10.7 9.3,19.6 0.4,6.6 0.2,7.8 -2.7,13.7 -3.6,7.3 -8,11.3 -16.8,15.1 -13.9,6.1 -16.2,13.1 -9.7,29.5 4,9.8 7,14.1 11.5,16.4 11.5,6 37.9,-8.6 52.5,-29.1 18.2,-25.5 19.3,-59.3 2.6,-85.4 C 206,60.7 179.6,46.7 152.7,47.1 c -4.5,0.1 -9.3,0.4 -10.7,0.6 z"
       id="path1415"
       style="fill:none;stroke:#000000;stroke-width:15;stroke-miterlimit:4;stroke-dasharray:none"
       inkscape:connector-curvature="0" />
    <path
       d="m 100.4,171.2 c -5.4,1.8 -12.6,8 -15.3,13.3 -3.5,6.7 -4.1,17.4 -1.3,23.7 4.7,10.8 14,16.8 25.6,16.8 16.1,-0.1 27.9,-11.7 28,-27.6 0,-11.3 -7.7,-22.3 -18.2,-25.8 -5.1,-1.8 -14,-1.9 -18.8,-0.4 z"
       id="path1417"
       style="fill:none;stroke:#000000;stroke-width:15;stroke-miterlimit:4;stroke-dasharray:none"
       inkscape:connector-curvature="0" />
  </g>
</svg>
