<?xml version="1.0" encoding="UTF-8" standalone="no"?>
<!-- Generator: Adobe Illustrator 22.1.0, SVG Export Plug-In . SVG Version: 6.00 Build 0)  -->

<svg
   xmlns:dc="http://purl.org/dc/elements/1.1/"
   xmlns:cc="http://creativecommons.org/ns#"
   xmlns:rdf="http://www.w3.org/1999/02/22-rdf-syntax-ns#"
   xmlns:svg="http://www.w3.org/2000/svg"
   xmlns="http://www.w3.org/2000/svg"
   xmlns:sodipodi="http://sodipodi.sourceforge.net/DTD/sodipodi-0.dtd"
   xmlns:inkscape="http://www.inkscape.org/namespaces/inkscape"
   version="1.1"
   id="Layer_1"
   x="0px"
   y="0px"
   viewBox="0 0 500 500"
   xml:space="preserve"
   sodipodi:docname="kemenaker.svg"
   width="500"
   height="500"
   inkscape:version="0.92.4 (5da689c313, 2019-01-14)"><metadata
   id="metadata11"><rdf:RDF><cc:Work
       rdf:about=""><dc:format>image/svg+xml</dc:format><dc:type
         rdf:resource="http://purl.org/dc/dcmitype/StillImage" /><dc:title>udemy</dc:title></cc:Work></rdf:RDF></metadata><defs
   id="defs9"><pattern
     y="0"
     x="0"
     height="6"
     width="6"
     patternUnits="userSpaceOnUse"
     id="EMFhbasepattern" /></defs><sodipodi:namedview
   pagecolor="#ffffff"
   bordercolor="#666666"
   borderopacity="1"
   objecttolerance="10"
   gridtolerance="10"
   guidetolerance="10"
   inkscape:pageopacity="0"
   inkscape:pageshadow="2"
   inkscape:window-width="1366"
   inkscape:window-height="705"
   id="namedview7"
   showgrid="false"
   inkscape:zoom="0.4609375"
   inkscape:cx="89.532293"
   inkscape:cy="248.1297"
   inkscape:window-x="1358"
   inkscape:window-y="-8"
   inkscape:window-maximized="1"
   inkscape:current-layer="Layer_1" />
<title
   id="title2">udemy</title>

<path
   id="path853"
   d="m 278.73401,253.85979 c 0,16.23742 6.83225,22.93994 15.0915,31.17758 2.72425,2.74587 4.75663,5.21067 7.48089,7.93493 2.37832,2.39993 28.5398,28.97221 30.48569,30.26947 -2.27021,-9.72947 -1.2324,-19.30761 3.17829,-28.10738 3.481,-6.9836 9.83759,-12.38887 15.76176,-18.24817 l 42.16107,-42.63673 c 3.02694,-3.02695 5.36201,-5.79444 8.38897,-8.82139 5.77282,-5.79445 11.22133,-11.24294 16.99414,-17.01577 l 12.69157,-12.69156 c 1.68644,-1.66482 2.48642,-2.91885 4.08638,-4.54043 10.50784,-10.52944 12.56184,-29.08032 5.40526,-43.26374 -4.47555,-8.88625 -12.66994,-15.97796 -22.11834,-19.13464 -5.68634,-1.90265 -11.00512,-2.61614 -17.96709,-1.7513 -10.07543,1.23239 -14.74557,4.97284 -20.90757,9.92407 -2.18373,1.77292 -3.45937,2.8756 -5.25393,5.18905 l -82.4411,83.04648 c -4.19447,4.21612 -6.16199,6.33497 -8.95111,11.8916 -2.20535,4.36745 -4.08638,10.26999 -4.08638,16.77793 z"
   style="fill:none;fill-opacity:1;fill-rule:evenodd;stroke:#000000;stroke-width:20.74798393;stroke-miterlimit:4.19999981;stroke-dasharray:none;paint-order:markers fill stroke"
   inkscape:connector-curvature="0" /><path
   id="path855"
   d="m 178.54202,326.87411 c 5.94579,-0.49729 3.78369,-0.90809 12.23752,-0.90809 8.88625,0 16.79956,3.84856 23.1994,8.99437 4.30259,3.48098 16.84281,17.38332 22.03185,21.94537 10.14028,8.92951 27.89117,27.32903 38.52873,38.09631 1.59996,1.59996 2.78911,2.29183 4.32422,3.84855 9.27543,9.3403 23.09129,23.58857 32.40997,31.95592 14.50772,13.0375 38.48547,11.63213 52.60403,-2.48641 12.30238,-12.30239 14.63745,-30.03165 6.61605,-45.83666 -1.27565,-2.50804 -2.94046,-5.12418 -4.79987,-6.98359 l -4.28098,-4.32422 c -0.69187,-0.62701 -0.99456,-0.9297 -1.62158,-1.55671 -25.51285,-25.68582 -51.43649,-50.70139 -76.86287,-76.40883 l -12.08617,-11.5024 c -12.99426,-9.7511 -31.15595,-10.27 -44.62587,-1.47023 -5.8593,3.84854 -12.77804,12.58345 -18.09683,17.27523 -5.27552,4.6269 -27.9344,26.89659 -29.5776,29.36139 z"
   style="fill:none;fill-opacity:1;fill-rule:evenodd;stroke:#000000;stroke-width:20.74798393;stroke-miterlimit:4.19999981;stroke-dasharray:none;paint-order:markers fill stroke"
   inkscape:connector-curvature="0" /><path
   id="path857"
   d="m 123.66776,103.33398 c 0,6.72415 2.1405,14.55097 4.71341,18.85357 4.79987,8.02141 7.9133,10.29161 13.77261,15.7185 8.56193,7.91331 23.56695,23.58858 32.40997,32.43159 4.06475,4.04314 7.93492,7.48089 12.0213,11.54566 l 35.4153,35.32879 c 4.54042,3.61073 5.81606,6.72415 13.53478,10.03218 12.69156,5.49175 27.09119,3.74044 37.23147,-2.91884 4.25934,-2.81074 13.53478,-12.69157 18.09683,-17.27522 l 29.59922,-29.36141 c -5.96742,0.49729 -3.8053,0.90809 -12.25914,0.90809 -4.51879,0 -9.68624,-1.49186 -13.08073,-2.76749 -11.13485,-4.21611 -20.12921,-17.40496 -30.31273,-25.92366 L 219.90311,105.49608 C 213.67623,99.2476 196.09832,81.042661 189.54714,75.550914 181.72032,68.956489 175.45021,64.783625 161.76407,64.783625 c -20.08596,0 -38.09631,17.664411 -38.09631,38.550355 z"
   style="fill:none;fill-opacity:1;fill-rule:evenodd;stroke:#000000;stroke-width:20.74798393;stroke-miterlimit:4.19999981;stroke-dasharray:none;paint-order:markers fill stroke"
   inkscape:connector-curvature="0" /><path
   id="path859"
   d="m 54.739837,338.20355 c 0,24.64801 20.41028,42.26916 44.323172,39.32871 6.486321,-0.79998 13.253711,-3.80532 18.010341,-7.37278 1.36212,-1.03781 1.72969,-1.59997 2.89722,-2.5513 2.20534,-1.7513 3.45937,-2.87559 5.25391,-5.16742 2.18373,-2.83237 74.74401,-75.37101 82.4411,-83.06811 4.21611,-4.1945 6.16201,-6.33497 8.95113,-11.89158 6.55118,-13.03751 5.05931,-29.01547 -3.61073,-40.36653 l -45.36096,-45.79339 c 3.26476,13.98882 -0.23784,27.69657 -10.31327,37.75036 -2.98369,2.98371 -5.62147,5.64309 -8.60517,8.60518 l -8.17276,8.6268 c -2.98371,2.98371 -5.62148,5.62148 -8.60518,8.60519 -5.77282,5.79445 -11.22133,11.22133 -17.01578,17.01576 l -46.463657,46.9177 c -7.264668,7.19982 -13.729366,16.69146 -13.729366,29.36141 z"
   style="fill:none;fill-opacity:1;fill-rule:evenodd;stroke:#000000;stroke-width:20.74798393;stroke-miterlimit:4.19999981;stroke-dasharray:none;paint-order:markers fill stroke"
   inkscape:connector-curvature="0" /><path
   id="path861"
   d="m 123.66776,400.77489 c 0,21.51296 17.98873,39.0044 38.09631,39.0044 20.79947,0 30.81002,-13.36182 43.6313,-26.18311 l 29.62085,-28.88573 c 1.59996,-1.2324 3.22155,-2.7675 4.28097,-4.32422 -5.0377,-5.81606 -30.7019,-31.56674 -36.08554,-35.1126 -12.64832,-8.30248 -29.88031,-7.07008 -41.08002,1.92427 -5.49175,4.4107 -10.63756,10.11867 -15.67526,15.15637 -10.55108,10.52946 -22.78861,19.0914 -22.78861,38.42062 z"
   style="fill:none;fill-opacity:1;fill-rule:evenodd;stroke:#000000;stroke-width:20.74798393;stroke-miterlimit:4.19999981;stroke-dasharray:none;paint-order:markers fill stroke"
   inkscape:connector-curvature="0" /><path
   id="path863"
   d="m 259.68585,124.1983 c 1.427,2.11886 20.23732,20.45353 23.69668,23.91289 6.74578,6.74577 11.02675,12.04293 20.34542,15.02663 11.78349,3.76207 23.69668,1.36214 33.05861,-5.83768 8.41059,-6.46469 18.22654,-18.57249 23.3075,-22.4859 4.99446,-3.84854 10.70242,-11.84833 12.79967,-18.03197 3.37287,-9.9673 3.17829,-18.853557 -0.92971,-28.669516 -1.66482,-3.956661 -5.08094,-8.864649 -7.87006,-11.653759 -7.54577,-7.567368 -16.47525,-11.67537 -29.57762,-11.67537 -11.63212,0 -21.59944,6.810632 -28.2371,13.491545 l -21.29675,20.86432 c -2.89721,2.91884 -5.49174,5.49176 -8.38897,8.38897 -2.91883,2.89723 -5.51337,5.47014 -8.38897,8.38898 -2.09724,2.11886 -6.63766,5.49175 -8.5187,8.28086 z"
   style="fill:none;fill-opacity:1;fill-rule:evenodd;stroke:#000000;stroke-width:20.74798393;stroke-miterlimit:4.19999981;stroke-dasharray:none;paint-order:markers fill stroke"
   inkscape:connector-curvature="0" /><path
   id="path865"
   d="m 344.48366,317.33923 c 0,22.37779 18.09681,30.78839 29.40463,44.97181 1.98914,2.46479 4.38908,4.15123 6.31335,5.94578 6.35659,5.92417 18.72383,10.81053 27.02633,9.59975 7.56737,-1.08105 11.02673,-0.8216 19.13463,-5.83769 20.58324,-12.66993 24.21559,-42.00972 9.14572,-58.18226 -12.06456,-12.99426 -28.82088,-29.72896 -41.70703,-42.61511 l -8.49708,-8.73492 c -2.14048,1.42701 -20.47513,20.23731 -23.93452,23.69669 -8.51868,8.5187 -16.88603,15.74012 -16.88603,31.15595 z"
   style="fill:none;fill-opacity:1;fill-rule:evenodd;stroke:#000000;stroke-width:20.74798393;stroke-miterlimit:4.19999981;stroke-dasharray:none;paint-order:markers fill stroke"
   inkscape:connector-curvature="0" /><path
   id="path867"
   d="m 54.739837,164.08916 c 0,10.96188 3.308017,20.32379 9.18895,26.65876 5.59985,6.01065 10.983495,11.41592 16.77793,17.21036 l 24.929083,25.40475 c 1.51348,1.49185 2.89723,2.74588 4.32422,4.30259 1.62158,1.72968 2.11886,3.02695 4.19448,4.4107 2.11887,-1.427 20.45353,-20.23731 23.91289,-23.69669 8.51871,-8.51868 16.88605,-15.74012 16.88605,-31.15594 0,-23.0048 -19.56706,-31.91268 -29.4695,-44.88533 -0.95133,-1.25402 -1.66482,-1.90265 -2.83236,-3.07018 -2.63776,-2.65938 -7.45926,-6.39983 -10.91863,-8.12952 -12.71319,-6.35659 -26.70201,-5.96741 -38.658462,1.40537 -1.318877,0.79998 -2.291833,1.57834 -3.416124,2.4648 -1.21078,0.97295 -2.39994,1.79455 -3.480993,2.8756 -1.145922,1.14592 -1.794545,2.16211 -2.918837,3.43775 -4.43232,5.01608 -8.518697,14.87529 -8.518697,22.76698 z"
   style="fill:none;fill-opacity:1;fill-rule:evenodd;stroke:#000000;stroke-width:20.74798393;stroke-miterlimit:4.19999981;stroke-dasharray:none;paint-order:markers fill stroke"
   inkscape:connector-curvature="0" /><path
   id="path869"
   d="m 248.81047,99.70164 c 6.42145,0 12.10778,-0.90809 17.38333,-3.459369 2.91884,-1.405375 5.92416,-3.243159 8.3241,-5.297168 8.1079,-6.875488 14.20504,-16.604972 14.20504,-27.956027 0,-11.783477 -2.31345,-20.734598 -10.76729,-29.145185 -5.88092,-5.837689 -14.94015,-11.675377 -24.15072,-11.675377 h -6.94035 c -5.05935,0.108108 -8.21601,0.778361 -15.13475,4.237728 -4.67015,2.313452 -7.22144,4.886363 -10.70243,8.34573 -6.03228,6.010652 -11.22133,19.091394 -10.11865,27.112809 1.05943,7.891689 1.72968,14.010448 7.00522,21.145401 7.32955,9.924062 17.7725,16.691458 30.8965,16.691458 z"
   style="fill:none;fill-opacity:1;fill-rule:evenodd;stroke:#000000;stroke-width:20.74798393;stroke-miterlimit:4.19999981;stroke-dasharray:none;paint-order:markers fill stroke"
   inkscape:connector-curvature="0" /><path
   id="path871"
   d="m 11.670704,252.06525 c 0,5.05932 1.751275,11.99969 3.480972,15.56715 6.961976,14.35639 18.486008,22.24808 34.918007,23.06968 20.756222,1.03782 39.588171,-17.23198 39.588171,-36.84229 0,-12.10779 -3.026965,-20.86432 -10.983506,-29.3614 l -4.929607,-4.12962 c -1.881033,-1.38374 -3.740436,-2.42156 -5.98903,-3.52423 -10.270003,-5.10257 -23.956131,-5.14581 -34.182895,-0.0217 -4.475559,2.24859 -7.524122,4.79988 -10.897018,8.15114 -6.702502,6.63767 -11.005094,16.95092 -11.005094,27.0912 z"
   style="fill:none;fill-opacity:1;fill-rule:evenodd;stroke:#000000;stroke-width:20.74798393;stroke-miterlimit:4.19999981;stroke-dasharray:none;paint-order:markers fill stroke"
   inkscape:connector-curvature="0" /><path
   id="path873"
   d="m 248.81047,482.84844 c 10.42135,0 20.49676,-4.36746 27.32901,-11.22134 7.87007,-7.9133 11.06999,-15.13474 11.84835,-27.1128 0.32431,-5.25393 -1.1243,-11.65375 -2.89723,-15.63203 -0.95133,-2.11885 -2.07563,-4.15124 -3.30802,-6.20524 -1.42698,-2.33507 -4.47557,-6.16201 -6.65928,-7.84845 -8.62681,-6.59442 -13.96721,-9.9673 -27.22092,-9.9673 -5.55661,0 -11.71862,1.79454 -15.41582,3.61071 -4.6269,2.29182 -5.16743,2.74587 -8.75653,5.77283 -21.40484,17.98871 -17.40495,51.7608 9.21057,64.9929 4.10801,2.03237 11.15647,3.61072 15.86987,3.61072 z"
   style="fill:none;fill-opacity:1;fill-rule:evenodd;stroke:#000000;stroke-width:20.74798393;stroke-miterlimit:4.19999981;stroke-dasharray:none;paint-order:markers fill stroke"
   inkscape:connector-curvature="0" /><path
   id="path875"
   d="m 409.77925,250.70313 c 0,7.28629 0.49728,12.1294 3.45937,18.2914 2.70264,5.59986 5.40526,9.25383 10.01056,13.12399 20.10757,16.90767 49.31762,10.03218 59.99843,-11.45915 3.28641,-6.6593 3.95666,-9.8376 4.06477,-14.74558 v -7.02684 c 0,-16.7347 -18.01035,-35.82609 -39.24223,-35.04773 -10.61594,0.38918 -19.35085,3.95665 -26.63715,10.897 -1.55672,1.47024 -2.78912,3.11345 -4.15124,4.90799 -1.47023,1.92427 -2.44318,3.67558 -3.56747,5.92417 -1.96753,3.93502 -3.93504,9.44841 -3.93504,15.13475 z"
   style="fill:none;fill-opacity:1;fill-rule:evenodd;stroke:#000000;stroke-width:20.74798393;stroke-miterlimit:4.19999981;stroke-dasharray:none;paint-order:markers fill stroke"
   inkscape:connector-curvature="0" /></svg>