<?xml version="1.0" encoding="UTF-8" standalone="no"?>
<!-- Generator: Adobe Illustrator 22.1.0, SVG Export Plug-In . SVG Version: 6.00 Build 0)  -->

<svg
   xmlns:dc="http://purl.org/dc/elements/1.1/"
   xmlns:cc="http://creativecommons.org/ns#"
   xmlns:rdf="http://www.w3.org/1999/02/22-rdf-syntax-ns#"
   xmlns:svg="http://www.w3.org/2000/svg"
   xmlns="http://www.w3.org/2000/svg"
   xmlns:sodipodi="http://sodipodi.sourceforge.net/DTD/sodipodi-0.dtd"
   xmlns:inkscape="http://www.inkscape.org/namespaces/inkscape"
   version="1.1"
   id="Layer_1"
   x="0px"
   y="0px"
   viewBox="0 0 600 500"
   xml:space="preserve"
   sodipodi:docname="udemy.svg"
   width="600"
   height="500"
   inkscape:version="0.92.4 (5da689c313, 2019-01-14)"><metadata
   id="metadata11"><rdf:RDF><cc:Work
       rdf:about=""><dc:format>image/svg+xml</dc:format><dc:type
         rdf:resource="http://purl.org/dc/dcmitype/StillImage" /><dc:title>udemy</dc:title></cc:Work></rdf:RDF></metadata><defs
   id="defs9"><pattern
     y="0"
     x="0"
     height="6"
     width="6"
     patternUnits="userSpaceOnUse"
     id="EMFhbasepattern" /></defs><sodipodi:namedview
   pagecolor="#ffffff"
   bordercolor="#666666"
   borderopacity="1"
   objecttolerance="10"
   gridtolerance="10"
   guidetolerance="10"
   inkscape:pageopacity="0"
   inkscape:pageshadow="2"
   inkscape:window-width="1366"
   inkscape:window-height="705"
   id="namedview7"
   showgrid="false"
   inkscape:zoom="0.65186406"
   inkscape:cx="359.5638"
   inkscape:cy="266.37029"
   inkscape:window-x="1358"
   inkscape:window-y="-8"
   inkscape:window-maximized="1"
   inkscape:current-layer="Layer_1" />
<title
   id="title2">udemy</title>
<path
   d="m 575.20361,283.23656 c -1.76337,-1.76335 -3.52674,-3.52672 -7.05344,-3.52672 -14.10687,14.10686 -31.74046,29.97708 -47.61068,38.79389 -7.05343,5.29007 -15.87024,7.05343 -22.92366,7.05343 -14.10686,0 -19.39695,-12.34351 -21.16031,-33.50381 -3.52671,-37.03054 -3.52671,-75.82443 -3.52671,-112.85494 0,-52.90075 -12.34351,-89.931297 -44.08396,-91.694679 h -3.52673 c -19.39693,0 -29.97708,10.580155 -42.3206,35.267199 -8.81679,22.92366 -26.45038,54.66413 -56.42748,116.38167 -22.92365,45.84731 -51.1374,89.93126 -82.87784,130.48853 -7.05345,8.81679 -12.34352,15.87023 -17.63359,19.39695 -3.52672,1.76334 -7.05344,3.5267 -10.58016,3.5267 -10.58015,0 -17.63358,-8.81679 -19.39693,-28.21372 0,-5.29008 -1.76336,-10.58016 -1.76336,-15.87025 0,-40.55723 15.87023,-107.56487 42.32059,-206.31294 C 256.0357,69.870152 247.21891,22.259471 204.8983,22.259471 v 0 c -8.81678,0 -17.63358,3.52672 -24.68701,10.580159 -8.81679,3.52672 -15.87022,15.870216 -22.92364,33.503819 -8.81682,19.396936 -58.190848,118.145021 -135.77862,169.282421 -1.763354,19.39694 10.580145,38.7939 31.740446,40.55724 19.396955,1.76335 33.503814,-7.05342 52.900764,-19.39693 l -3.52672,17.63359 c -5.290074,19.39693 -8.816789,40.55724 -12.343503,61.71755 -10.580156,98.74806 35.267163,148.12212 88.167913,148.12212 8.81679,0 17.63359,-1.76337 26.45037,-3.52672 58.19085,-14.10688 114.6183,-82.87787 181.62595,-238.05341 -1.76336,15.87022 -1.76336,31.74046 0,47.61069 5.29006,89.93126 38.79387,116.38167 89.93127,116.38167 37.03054,0 72.2977,-19.39695 89.93129,-44.084 12.34352,-14.10686 17.63359,-33.50381 19.39694,-51.13739 0,-14.10686 -3.52671,-22.92365 -10.58014,-28.21372 z"
   id="path4"
   inkscape:connector-curvature="0"
   style="fill:none;stroke:#000000;stroke-width:35.21203232;stroke-miterlimit:4;stroke-dasharray:none" />
</svg>