<?xml version="1.0" encoding="iso-8859-1"?>
<!-- Generator: Adobe Illustrator 19.0.0, SVG Export Plug-In . SVG Version: 6.00 Build 0)  -->
<svg version="1.1" id="Capa_1" xmlns="http://www.w3.org/2000/svg" xmlns:xlink="http://www.w3.org/1999/xlink" x="0px" y="0px"
	 viewBox="0 0 512 512" style="enable-background:new 0 0 512 512;" xml:space="preserve">
<g>
	<g>
		<path d="M400.769,161.894c-13.492-30.843-32.268-60.196-55.809-87.247c-39.996-45.958-79.756-69.304-81.43-70.275L256,0
			l-7.531,4.372c-1.673,0.972-41.433,24.317-81.43,70.275c-23.541,27.051-42.317,56.404-55.809,87.247
			C94.295,200.608,85.71,241.715,85.71,284.072c0,88.336,68.579,160.952,155.291,167.411V512h29.999v-60.517
			c86.712-6.46,155.291-79.076,155.291-167.411C426.29,241.716,417.704,200.608,400.769,161.894z M188.999,95.112
			c18.864-21.805,37.891-38.23,52.001-49.091V177.19l-79.935-44.823C169.317,119.536,178.64,107.088,188.999,95.112z
			 M138.467,174.484c2.359-5.423,4.905-10.799,7.624-16.122L241,211.583v95.705L119.39,239.095
			C123.045,216.938,129.405,195.324,138.467,174.484z M241.001,421.375c-70.149-6.381-125.293-65.518-125.293-137.303
			c0-4.176,0.109-8.337,0.294-12.484l124.999,70.094V421.375z M373.284,173.916c9.193,21.016,15.636,42.821,19.324,65.179
			l-121.609,68.193v-95.705l94.913-53.224C368.538,163.498,370.997,168.684,373.284,173.916z M270.998,177.19V45.988
			c13.907,10.7,32.613,26.842,51.332,48.353c10.627,12.212,20.178,24.916,28.608,38.023L270.998,177.19z M270.999,421.375v-79.693
			l124.998-70.093c0.185,4.148,0.294,8.308,0.294,12.484C396.292,355.856,341.149,414.994,270.999,421.375z"/>
	</g>
</g>
<g>
</g>
<g>
</g>
<g>
</g>
<g>
</g>
<g>
</g>
<g>
</g>
<g>
</g>
<g>
</g>
<g>
</g>
<g>
</g>
<g>
</g>
<g>
</g>
<g>
</g>
<g>
</g>
<g>
</g>
</svg>
